<svg xmlns="http://www.w3.org/2000/svg" width="718" height="498" viewBox="0 0 718 498">
<g>
<path d="M 249.71,467.98 C246.20,465.22 245.39,461.90 243.90,444.18 C242.90,432.24 242.28,428.69 241.06,428.05 C240.20,427.60 236.57,426.91 233.00,426.52 C225.94,425.74 209.61,421.72 204.00,419.37 C166.23,403.53 141.90,379.28 125.86,341.50 C125.40,340.40 124.16,336.57 123.11,333.00 C114.69,304.24 115.02,279.58 124.19,251.50 C127.14,242.48 135.18,225.52 139.30,219.64 C148.63,206.35 161.68,192.88 173.11,184.76 C187.84,174.29 210.80,164.51 226.59,161.99 C230.30,161.39 233.71,160.68 234.17,160.39 C234.63,160.11 235.00,150.24 235.00,138.45 L 235.00,117.03 L 231.61,115.61 C226.61,113.52 220.18,107.28 217.42,101.85 C214.03,95.15 214.00,83.68 217.37,76.46 C221.79,66.97 232.80,60.00 243.39,60.00 C257.03,60.00 270.15,71.00 271.65,83.71 C273.18,96.64 269.03,106.56 259.50,112.75 C256.75,114.53 253.94,116.46 253.25,117.04 C251.51,118.49 251.46,157.06 253.20,158.80 C254.12,159.72 277.13,160.00 350.66,160.00 C443.62,160.00 446.96,159.94 447.93,158.13 C448.53,157.01 448.79,148.66 448.59,137.13 C448.25,118.48 447.66,115.00 444.81,115.00 C442.20,115.00 435.12,108.59 432.00,103.40 C428.71,97.93 428.50,97.06 428.55,89.04 C428.60,79.29 430.15,75.62 437.34,68.20 C440.57,64.87 443.04,63.44 448.37,61.82 C454.46,59.97 455.87,59.87 460.87,60.94 C468.38,62.54 472.17,64.36 476.24,68.32 C484.28,76.12 487.14,89.29 483.02,99.45 C480.61,105.38 473.77,112.61 468.25,115.05 L 465.00,116.49 L 465.00,138.73 L 465.00,160.96 L 467.25,161.40 C468.49,161.63 472.20,162.35 475.50,162.99 C499.80,167.71 524.16,181.04 543.03,199.95 C558.62,215.57 569.56,233.57 575.86,254.00 C580.96,270.51 581.50,274.33 581.50,294.00 C581.50,313.73 580.95,317.62 575.82,334.00 C569.90,352.93 558.23,372.70 544.63,386.83 C538.62,393.09 522.69,405.36 514.34,410.16 C502.61,416.92 487.04,422.68 472.49,425.65 C465.67,427.04 453.92,427.34 392.07,427.70 L 319.64,428.12 L 303.57,439.39 C265.84,465.84 259.33,470.00 255.72,470.00 C253.77,470.00 251.15,469.12 249.71,467.98 M 279.23,431.79 C286.53,426.73 297.36,419.31 303.30,415.29 L 314.09,408.00 L 385.97,408.00 C432.74,408.00 459.71,407.63 463.17,406.94 C477.33,404.11 482.79,402.67 489.85,399.88 C497.15,397.00 509.94,390.50 511.00,389.13 C511.27,388.77 513.52,387.17 516.00,385.57 C522.48,381.39 536.73,366.63 542.15,358.48 C550.79,345.52 555.26,335.11 560.18,316.50 C561.97,309.71 561.97,278.29 560.18,271.50 C553.54,246.39 544.94,230.24 530.17,215.19 C517.61,202.39 503.63,193.44 485.50,186.57 C480.05,184.50 476.42,183.67 461.58,181.05 C454.51,179.80 334.47,179.77 273.50,181.00 C230.46,181.88 230.88,181.83 214.50,187.34 C181.84,198.32 154.68,226.02 143.83,259.43 C134.98,286.68 137.16,318.36 149.60,343.25 C163.55,371.18 186.95,391.84 216.00,401.88 C224.75,404.90 242.40,408.00 250.84,408.00 C257.85,408.00 260.41,411.09 261.88,421.29 C262.50,425.58 263.00,431.46 263.00,434.37 C263.00,439.53 263.48,441.00 265.15,441.00 C265.60,441.00 271.94,436.86 279.23,431.79 M 251.50,334.08 C239.59,332.08 226.46,321.53 222.07,310.44 C218.58,301.60 218.13,289.47 220.98,281.00 C224.62,270.20 232.51,261.49 243.00,256.68 C248.85,254.00 250.52,253.70 259.76,253.69 C269.67,253.67 270.26,253.79 277.49,257.46 C290.14,263.88 297.12,273.31 299.90,287.75 C300.83,292.58 300.83,295.42 299.92,300.25 C295.43,324.09 275.38,338.09 251.50,334.08 M 432.50,333.98 C415.26,330.64 403.56,318.49 399.95,300.15 C397.74,288.92 402.05,275.13 410.66,265.94 C425.75,249.79 452.62,249.06 468.39,264.35 C474.30,270.08 476.45,273.48 478.90,280.93 C482.63,292.29 480.84,307.58 474.73,316.49 C465.32,330.23 448.70,337.11 432.50,333.98 Z" fill="rgba(0,0,0,1)"/>
</g>
</svg>